<?xml version="1.0" ?><!DOCTYPE svg  PUBLIC '-//W3C//DTD SVG 1.1//EN'  'http://www.w3.org/Graphics/SVG/1.1/DTD/svg11.dtd'><svg height="48px" id="Layer_1" style="enable-background:new 0 0 48 48;" version="1.1" viewBox="0 0 48 48" width="48px" xml:space="preserve" xmlns="http://www.w3.org/2000/svg" xmlns:xlink="http://www.w3.org/1999/xlink"><path d="M37.54,26.867c-0.325-2.809-3.134-4.977-6.554-4.964  c-0.338-3.734-3.829-6.62-8.031-6.563c-3.816,0.052-6.971,2.499-7.698,5.752c-2.955,0.085-5.294,2.465-5.254,5.377  c0.029,2.206,1.423,4.073,3.375,4.853l0.829,0.143c0,0,14.24,0.755,20.593-0.104h0.012c0.484-0.073,0.913-0.145,1.299-0.238" style="fill:none;stroke:#231F20;stroke-miterlimit:10;"/><path d="M14.618,21.116c0,0,5.097-0.345,4.936,3.035" style="fill:none;stroke:#231F20;stroke-miterlimit:10;"/><path d="M31.242,21.856c0,0-4.689-0.074-4.498,3.784" style="fill:none;stroke:#231F20;stroke-miterlimit:10;"/><path d="M34.799,31.36c0.012,0,0.022,0,0.022,0" style="fill:none;stroke:#231F20;stroke-miterlimit:10;"/><path d="M37.395,26.141c0,0,1.24,4.023-1.458,5.027" style="fill:none;stroke:#231F20;stroke-miterlimit:10;"/></svg>