<?xml version="1.0" ?><!DOCTYPE svg  PUBLIC '-//W3C//DTD SVG 1.1//EN'  'http://www.w3.org/Graphics/SVG/1.1/DTD/svg11.dtd'><svg enable-background="new 0 0 800 800" height="800px" id="Layer_1" version="1.1" viewBox="0 0 800 800" width="800px" xml:space="preserve" xmlns="http://www.w3.org/2000/svg" xmlns:xlink="http://www.w3.org/1999/xlink"><g><path d="M194.321,452.726c0.943,0.942,2.018,1.916,3.194,2.889c44.658,43.107,103.209,66.947,165.531,66.947   c0.01,0,0.01,0,0.01,0c2.403,0,4.796-0.051,7.2-0.12h0.009c0.193,0,0.386,0,0.589-0.012c60.79-1.998,117.931-26.75,160.885-69.704   c42.976-42.976,67.738-100.116,69.727-160.917l0,0l0,0c2.13-65.76-23.273-130.101-69.706-176.523   C484.893,68.416,421.688,43.38,355.238,45.57l0,0l0,0c-60.822,1.988-117.973,26.75-160.917,69.705   c-42.964,42.965-67.727,100.105-69.705,160.917c0,0,0,0,0,0.01c-2.15,65.709,23.242,130.039,69.665,176.473   C194.291,452.694,194.311,452.715,194.321,452.726z M184.354,377.433c-0.091,0.325-0.244,0.68-0.335,1.004   c-13.517-25.514-21.336-53.734-22.897-83.182c1.075,0.061,2.14,0.111,3.215,0.192c2.504,0.173,5.009,0.416,7.503,0.69   c2.068,0.223,4.127,0.446,6.175,0.73c2.545,0.355,5.07,0.801,7.595,1.247c1.907,0.345,3.813,0.639,5.699,1.024   c4.228,0.883,8.426,1.876,12.574,3.012c1.278,0.354,2.525,0.791,3.793,1.166c3.102,0.913,6.196,1.866,9.248,2.931   c0.467,0.162,0.933,0.355,1.4,0.517c-0.538,0.832-0.964,1.633-1.481,2.454c-3.083,4.878-6.003,9.694-8.71,14.43   c-0.578,1.015-1.207,2.038-1.774,3.042c-3.083,5.506-5.872,10.901-8.437,16.194c-0.629,1.288-1.187,2.545-1.775,3.823   c-2.018,4.34-3.863,8.599-5.537,12.787c-0.456,1.135-0.953,2.301-1.379,3.427C187.344,367.891,185.722,372.728,184.354,377.433z    M273.061,292.528c5.131-6.541,10.545-13.021,16.123-19.46c1.673-1.937,3.417-3.843,5.131-5.759   c4.117-4.634,8.346-9.228,12.696-13.781c1.095-1.156,2.21-2.302,3.316-3.458l86.639,86.639c-1.166,1.135-2.342,2.261-3.518,3.387   c-4.502,4.289-9.045,8.457-13.608,12.534c-1.977,1.765-3.955,3.56-5.942,5.283c-6.409,5.537-12.848,10.932-19.349,16.012   c-0.04,0.03-0.081,0.061-0.111,0.091c-2.87-4.775-5.952-9.41-9.136-13.963c-0.872-1.237-1.795-2.433-2.687-3.66   c-2.729-3.732-5.567-7.383-8.508-10.962c-1.075-1.308-2.139-2.616-3.245-3.904c-3.894-4.523-7.91-8.964-12.148-13.213   c-4.239-4.239-8.68-8.245-13.203-12.138c-1.298-1.115-2.617-2.18-3.915-3.266c-3.569-2.93-7.22-5.759-10.941-8.477   c-1.227-0.902-2.434-1.825-3.681-2.697c-4.553-3.194-9.188-6.277-13.953-9.146C273.041,292.569,273.041,292.548,273.061,292.528z    M349.458,213.342c1.785-1.511,3.549-3.113,5.344-4.604c5.75-4.756,11.509-9.339,17.3-13.72c0.041-0.031,0.07-0.051,0.111-0.081   c2.84,4.664,5.882,9.197,9.025,13.659c0.873,1.237,1.805,2.434,2.698,3.651c2.656,3.62,5.415,7.159,8.275,10.617   c1.074,1.308,2.149,2.616,3.254,3.903c3.823,4.421,7.747,8.761,11.895,12.919c4.157,4.158,8.508,8.092,12.938,11.916   c1.257,1.084,2.545,2.129,3.822,3.184c3.51,2.9,7.099,5.699,10.77,8.396c1.176,0.862,2.323,1.754,3.519,2.596   c4.462,3.154,9.006,6.195,13.689,9.035c-0.021,0.031-0.04,0.061-0.071,0.092c-4.38,5.8-8.974,11.581-13.739,17.34   c-1.501,1.795-3.103,3.569-4.625,5.364c-3.346,3.924-6.691,7.838-10.2,11.732c-0.385,0.426-0.812,0.852-1.196,1.277l-85.848-85.858   c0.426-0.375,0.832-0.791,1.257-1.167C341.579,220.065,345.523,216.698,349.458,213.342z M404.235,172.933   c3.712-2.292,7.383-4.502,10.993-6.561c1.49-0.852,2.939-1.603,4.41-2.413c2.708-1.481,5.395-2.941,8.031-4.27   c1.632-0.832,3.214-1.582,4.817-2.353c2.413-1.166,4.806-2.281,7.139-3.315c1.612-0.71,3.193-1.379,4.766-2.028   c2.271-0.933,4.481-1.795,6.672-2.596c1.5-0.547,3.002-1.085,4.462-1.572c2.181-0.73,4.299-1.349,6.388-1.937   c1.339-0.376,2.688-0.781,3.976-1.096c2.231-0.537,4.34-0.933,6.449-1.297c1.015-0.172,2.089-0.416,3.084-0.548   c3.021-0.416,5.92-0.659,8.617-0.659c7.444,0,12.798,1.603,15.962,4.756c0.69,0.7,1.317,1.521,1.866,2.444   c0.182,0.304,0.314,0.679,0.476,1.014c0.335,0.659,0.659,1.328,0.933,2.079c0.152,0.456,0.274,0.973,0.397,1.46   c0.202,0.74,0.405,1.471,0.547,2.282c0.101,0.568,0.162,1.187,0.243,1.795c0.091,0.821,0.183,1.653,0.222,2.545   c0.042,0.669,0.042,1.389,0.042,2.099c0,0.913-0.011,1.856-0.061,2.83c-0.041,0.781-0.102,1.582-0.184,2.393   c-0.08,1.004-0.202,2.038-0.345,3.103c-0.121,0.862-0.242,1.744-0.406,2.647c-0.182,1.105-0.405,2.261-0.647,3.427   c-0.203,0.933-0.396,1.876-0.63,2.84c-0.283,1.216-0.628,2.484-0.974,3.751c-0.263,1.014-0.526,2.008-0.841,3.042   c-0.396,1.349-0.862,2.738-1.327,4.138c-0.336,1.034-0.649,2.048-1.035,3.113c-0.548,1.541-1.166,3.143-1.785,4.746   c-0.386,0.994-0.73,1.967-1.136,2.981c-0.832,2.039-1.743,4.147-2.696,6.277c-0.274,0.638-0.519,1.237-0.813,1.886   c-1.257,2.768-2.615,5.607-4.066,8.507c-0.476,0.974-1.034,1.988-1.541,2.972c-1.024,1.987-2.059,3.984-3.173,6.033   c-0.65,1.187-1.37,2.413-2.05,3.62c-1.074,1.906-2.14,3.803-3.284,5.739c-0.782,1.328-1.624,2.688-2.445,4.026   c-0.8,1.329-1.632,2.657-2.474,4.005c-0.101-0.061-0.212-0.111-0.314-0.172c-0.507-0.304-0.993-0.649-1.501-0.954   c-3.772-2.291-7.452-4.715-11.053-7.24c-1.278-0.893-2.524-1.826-3.772-2.748c-2.92-2.149-5.779-4.381-8.589-6.682   c-1.165-0.964-2.343-1.907-3.487-2.89c-3.783-3.265-7.494-6.622-11.042-10.171c-3.551-3.549-6.905-7.261-10.172-11.053   c-0.983-1.135-1.917-2.302-2.87-3.458c-2.312-2.809-4.563-5.689-6.712-8.62c-0.913-1.247-1.846-2.484-2.729-3.742   c-2.524-3.589-4.929-7.26-7.21-11.023c-0.324-0.527-0.689-1.034-1.004-1.571c-0.07-0.111-0.111-0.224-0.182-0.334   c0.07-0.041,0.141-0.092,0.213-0.142C403.009,173.652,403.607,173.318,404.235,172.933z M511.043,251.845   c1.654-2.87,3.226-5.719,4.757-8.539c0.527-0.994,1.104-1.998,1.622-2.981c1.978-3.762,3.833-7.473,5.567-11.134   c0.436-0.923,0.812-1.814,1.236-2.738c1.258-2.738,2.464-5.456,3.59-8.132c0.537-1.299,1.025-2.565,1.531-3.844   c0.913-2.281,1.766-4.533,2.566-6.753c0.476-1.328,0.922-2.636,1.368-3.955c0.729-2.18,1.391-4.319,2.008-6.449   c0.366-1.227,0.739-2.454,1.055-3.651c0.649-2.393,1.197-4.746,1.703-7.068c0.183-0.841,0.415-1.713,0.589-2.545   c0.021-0.163,0.081-0.334,0.102-0.497c15.554,27.065,24.528,57.395,26.223,89.174c-1.156-0.061-2.313-0.121-3.469-0.203   c-2.545-0.192-5.09-0.436-7.625-0.71c-2.129-0.243-4.249-0.477-6.368-0.781c-2.657-0.375-5.314-0.852-7.949-1.338   c-1.887-0.345-3.783-0.639-5.659-1.035c-4.31-0.913-8.589-1.967-12.827-3.163c-1.48-0.416-2.931-0.923-4.411-1.369   c-3.011-0.923-6.023-1.875-8.984-2.931c-0.587-0.213-1.176-0.457-1.764-0.68c0.911-1.49,1.744-2.951,2.615-4.42   C509.37,254.685,510.222,253.255,511.043,251.845z M319.118,398.972c-3.012,1.906-6.023,3.792-8.984,5.546   c-1.785,1.065-3.549,2.039-5.324,3.043c-2.728,1.551-5.425,3.072-8.102,4.481c-1.805,0.954-3.59,1.855-5.375,2.749   c-2.556,1.276-5.09,2.503-7.585,3.649c-1.744,0.812-3.467,1.582-5.171,2.313c-2.454,1.054-4.837,2.018-7.199,2.92   c-1.623,0.618-3.245,1.248-4.817,1.795c-2.373,0.831-4.665,1.541-6.926,2.21c-1.42,0.416-2.88,0.882-4.249,1.237   c-2.414,0.619-4.695,1.065-6.957,1.481c-1.085,0.203-2.231,0.486-3.275,0.639c-3.235,0.466-6.327,0.74-9.188,0.74   c-1.845,0-3.569-0.102-5.172-0.295c-0.567-0.07-1.014-0.222-1.551-0.313c-0.963-0.174-1.977-0.325-2.829-0.577   c-0.822-0.245-1.481-0.589-2.201-0.904c-0.457-0.203-0.984-0.344-1.389-0.577c-0.771-0.426-1.379-0.953-1.998-1.48   c-0.416-0.457-0.873-0.883-1.339-1.287c-0.517-0.599-1.024-1.198-1.45-1.918c-0.193-0.325-0.325-0.729-0.507-1.085   c-0.345-0.698-0.69-1.409-0.964-2.21c-0.172-0.486-0.273-1.044-0.415-1.562c-0.203-0.782-0.406-1.553-0.548-2.413   c-0.102-0.609-0.152-1.278-0.223-1.938c-0.081-0.861-0.172-1.745-0.203-2.677c-0.03-0.73-0.01-1.502,0-2.262   c0.021-0.973,0.041-1.957,0.111-2.991c0.051-0.831,0.142-1.684,0.234-2.556c0.121-1.074,0.263-2.169,0.436-3.295   c0.143-0.924,0.314-1.876,0.486-2.829c0.224-1.177,0.477-2.373,0.761-3.6c0.223-1.015,0.466-2.039,0.74-3.093   c0.335-1.277,0.7-2.585,1.085-3.914c0.324-1.084,0.649-2.18,1.004-3.306c0.446-1.389,0.943-2.829,1.45-4.269   c0.406-1.146,0.791-2.282,1.237-3.458c0.578-1.531,1.217-3.113,1.866-4.695c0.487-1.176,0.933-2.322,1.44-3.529   c0.75-1.724,1.571-3.509,2.393-5.283c0.517-1.136,0.994-2.241,1.542-3.387c1.064-2.211,2.221-4.483,3.397-6.764   c0.405-0.791,0.761-1.552,1.187-2.353c1.643-3.124,3.407-6.317,5.273-9.582c0.365-0.649,0.791-1.329,1.177-1.988   c1.53-2.626,3.103-5.273,4.775-7.99c0.679-1.085,1.43-2.221,2.119-3.327c1.228-1.926,2.475-3.863,3.763-5.82   c0.233,0.132,0.497,0.243,0.72,0.385c0.892,0.527,1.744,1.105,2.637,1.643c3.519,2.14,6.976,4.381,10.364,6.723   c1.338,0.933,2.656,1.896,3.975,2.86c2.991,2.19,5.911,4.461,8.781,6.814c1.176,0.973,2.373,1.916,3.539,2.91   c3.894,3.346,7.697,6.794,11.347,10.435c3.63,3.63,7.057,7.422,10.384,11.296c1.034,1.206,2.028,2.454,3.032,3.681   c2.302,2.819,4.532,5.689,6.683,8.619c0.994,1.359,1.987,2.708,2.94,4.087c2.332,3.357,4.553,6.794,6.673,10.282   c0.547,0.902,1.135,1.765,1.663,2.667c0.142,0.233,0.253,0.477,0.385,0.71c-0.263,0.172-0.547,0.375-0.811,0.558   C322.343,396.984,320.741,397.947,319.118,398.972z M272.259,461.78c3.083-0.954,6.217-2.019,9.4-3.185   c2.211-0.811,4.442-1.643,6.713-2.565c3.306-1.338,6.672-2.817,10.069-4.37c2.261-1.034,4.502-2.037,6.804-3.164   c3.64-1.785,7.341-3.762,11.073-5.77c2.16-1.166,4.29-2.251,6.469-3.499c4.36-2.473,8.782-5.191,13.233-7.969   c1.43-0.894,2.809-1.644,4.25-2.565c0.162,0.445,0.334,0.881,0.487,1.317c1.216,3.458,2.312,6.956,3.326,10.475   c0.243,0.812,0.527,1.612,0.75,2.434c1.197,4.342,2.231,8.721,3.144,13.132c0.264,1.299,0.466,2.607,0.709,3.914   c0.578,3.154,1.125,6.318,1.562,9.502c0.224,1.643,0.406,3.297,0.588,4.948c0.325,2.911,0.598,5.831,0.801,8.762   c0.071,0.902,0.112,1.815,0.162,2.728c-29.407-1.592-57.628-9.45-83.121-22.906C269.836,462.663,271.083,462.146,272.259,461.78z    M388.215,484.657c-0.041-0.994-0.203-1.967-0.274-2.95c-0.304-4.676-0.74-9.329-1.318-13.964   c-0.173-1.399-0.294-2.799-0.498-4.188c-0.832-5.851-1.865-11.661-3.123-17.431c-0.264-1.229-0.598-2.444-0.882-3.662   c-1.096-4.674-2.322-9.307-3.702-13.902c-0.487-1.632-0.973-3.254-1.5-4.877c-1.643-5.101-3.417-10.14-5.395-15.119   c-0.193-0.466-0.325-0.963-0.518-1.43c1.227-0.933,2.444-1.926,3.661-2.879c1.623-1.258,3.245-2.535,4.867-3.813   c4.158-3.296,8.295-6.683,12.412-10.15c1.237-1.045,2.474-2.048,3.711-3.113c5.232-4.481,10.423-9.096,15.575-13.841   c1.104-1.015,2.19-2.069,3.285-3.093c2.738-2.566,5.496-5.122,8.225-7.758l73.619,73.619   C465.899,462.824,428.369,479.658,388.215,484.657z M521.438,409.78l-73.396-73.395c0.528-0.579,0.993-1.176,1.521-1.754   c6.104-6.733,12.026-13.517,17.664-20.352c0.406-0.497,0.771-0.994,1.177-1.49c5.171-6.318,10.101-12.676,14.846-19.054   c0.568-0.75,1.196-1.5,1.764-2.251c0.711,0.294,1.472,0.507,2.191,0.791c4.726,1.896,9.512,3.62,14.359,5.202   c1.409,0.467,2.818,0.943,4.238,1.379c5.657,1.734,11.376,3.306,17.166,4.625c0.842,0.192,1.694,0.334,2.525,0.517   c5.143,1.104,10.313,2.028,15.516,2.808c1.47,0.213,2.94,0.447,4.411,0.64c5.901,0.76,11.813,1.358,17.755,1.683   c0.173,0.011,0.345,0.041,0.509,0.051C559.1,346.079,544.517,380.77,521.438,409.78z M460.575,108.805   c-0.954,0.213-1.907,0.436-2.869,0.669c-3.945,0.963-7.94,2.038-12.078,3.376c-0.101,0.031-0.192,0.072-0.283,0.102   c-4.097,1.329-8.296,2.901-12.555,4.604c-1.034,0.406-2.058,0.822-3.103,1.248c-4.319,1.795-8.721,3.732-13.202,5.881   c-0.527,0.264-1.075,0.559-1.623,0.822c-4.106,2.008-8.274,4.188-12.492,6.49c-1.064,0.578-2.109,1.136-3.184,1.734   c-4.188,2.342-8.416,4.786-12.695,7.413c-0.183-0.518-0.406-1.035-0.588-1.552c-1.227-3.417-2.343-6.875-3.387-10.354   c-0.305-0.994-0.649-1.977-0.933-2.981c-1.257-4.462-2.373-8.964-3.327-13.507c-0.233-1.136-0.405-2.292-0.628-3.438   c-0.659-3.428-1.258-6.866-1.734-10.323c-0.233-1.622-0.405-3.255-0.598-4.888c-0.345-3.052-0.639-6.125-0.852-9.197   c-0.061-0.943-0.111-1.876-0.162-2.809c31.658,1.724,61.936,10.688,88.919,26.102C462.339,108.369,461.448,108.613,460.575,108.805   z M337.857,83.343c0.061,0.973,0.223,1.937,0.284,2.9c0.305,4.807,0.761,9.593,1.359,14.369c0.172,1.399,0.304,2.799,0.507,4.188   c0.852,5.972,1.917,11.895,3.215,17.776c0.253,1.156,0.578,2.291,0.841,3.437c1.146,4.817,2.434,9.583,3.864,14.318   c0.497,1.653,1.004,3.295,1.552,4.938c1.662,5.101,3.467,10.141,5.476,15.109c0.223,0.538,0.375,1.105,0.598,1.643   c-0.76,0.558-1.511,1.207-2.261,1.765c-6.277,4.675-12.533,9.532-18.76,14.612c-0.608,0.497-1.217,0.943-1.815,1.44   c-6.804,5.608-13.558,11.509-20.271,17.594c-0.588,0.537-1.196,1.024-1.794,1.561l-73.406-73.396   C266.247,102.519,300.947,87.937,337.857,83.343z M210.92,150.685l73.64,73.619c-1.055,1.085-1.987,2.21-3.032,3.296   c-6.135,6.409-12.067,12.868-17.796,19.418c-1.125,1.288-2.312,2.555-3.427,3.854c-6.5,7.565-12.675,15.21-18.597,22.917   c-0.578,0.75-1.237,1.48-1.815,2.231c-0.518-0.203-1.064-0.355-1.572-0.558c-4.928-1.957-9.907-3.722-14.946-5.345   c-1.633-0.517-3.266-1.013-4.908-1.5c-4.583-1.368-9.228-2.596-13.893-3.69c-1.227-0.284-2.433-0.619-3.66-0.893   c-5.77-1.247-11.57-2.282-17.421-3.113c-1.409-0.203-2.829-0.334-4.249-0.506c-4.624-0.569-9.258-1.014-13.903-1.309   c-0.983-0.071-1.967-0.233-2.95-0.284C167.378,218.666,184.191,181.137,210.92,150.685z" fill="#4D4D4D"/><path d="M582.351,56.542c0,0-12.614-9.786-24.255,0.832c-11.784,10.738-1.43,24.854-1.43,24.854   c50.884,50.104,82.502,119.707,82.502,196.581c0,152.207-123.836,276.041-276.041,276.041c-76.874,0-146.478-31.618-196.581-82.502   c0,0-11.408-10.455-24.205,1.593c-12.797,12.278-1.47,24.093-1.47,24.093c56.675,57.465,135.363,93.159,222.256,93.159   c1.764,0,3.508-0.02,5.263-0.051c169.819-2.808,307.12-141.843,307.12-312.333C675.51,191.915,639.816,113.226,582.351,56.542z" fill="#4D4D4D"/><path d="M537.926,718.22H391.683v-88.798c0-10.029-8.132-18.172-18.171-18.172   c-10.028,0-18.171,8.143-18.171,18.172v88.798H209.116c-10.039,0-18.171,8.133-18.171,18.172c0,10.028,8.132,18.171,18.171,18.171   h328.81c10.04,0,18.172-8.143,18.172-18.171C556.098,726.353,547.966,718.22,537.926,718.22z" fill="#4D4D4D"/></g></svg>